<svg viewBox="0 0 111 40" fill="none" xmlns="http://www.w3.org/2000/svg" class="blue-shield-logo">
                  <path d="M108.248 0C108.248 0 102.15 3.14402 94.8359 3.14402C87.5215 3.14402 81.4242 0 81.4242 0C79.5134 3.50507 79.1037 7.39148 79.0753 11.2819C78.9779 23.6511 85.5013 34.9777 94.8359 39.9919C104.175 34.9777 110.69 23.6511 110.593 11.2819C110.564 7.38743 110.154 3.50507 108.248 0Z" fill="#0095DA" id="solid-shield"></path>
                  <path d="M106.552 38.0609H106.824C107.015 38.0609 107.161 38.0365 107.238 37.9878C107.319 37.9432 107.356 37.858 107.356 37.7444C107.356 37.6349 107.323 37.5457 107.242 37.5173C107.169 37.4645 107.043 37.4442 106.857 37.4442H106.544V38.0609H106.552ZM106.349 37.282H107.039C107.214 37.282 107.347 37.3225 107.453 37.4077C107.554 37.4767 107.603 37.5822 107.603 37.7282C107.603 37.9838 107.453 38.142 107.149 38.1947C107.266 38.2678 107.356 38.3448 107.408 38.4219C107.461 38.4949 107.55 38.6816 107.672 38.9655H107.42C107.266 38.6329 107.153 38.426 107.063 38.3489C106.978 38.2678 106.84 38.2191 106.65 38.2191H106.552V38.9655H106.349V37.282ZM108.617 38.1055C108.617 37.6552 108.459 37.2576 108.139 36.9453C107.818 36.6167 107.433 36.4544 106.986 36.4544C106.536 36.4544 106.155 36.6126 105.834 36.9453C105.514 37.2576 105.36 37.6552 105.36 38.1055C105.36 38.5558 105.514 38.9412 105.834 39.2738C106.155 39.5943 106.532 39.7566 106.986 39.7566C107.433 39.7566 107.818 39.5943 108.139 39.2738C108.459 38.9452 108.617 38.5558 108.617 38.1055ZM105.116 38.1055C105.116 37.5903 105.295 37.14 105.668 36.7668C106.029 36.4057 106.467 36.2231 106.982 36.2231C107.498 36.2231 107.936 36.4057 108.301 36.7668C108.666 37.14 108.853 37.5903 108.853 38.1055C108.853 38.6248 108.67 39.0751 108.301 39.4402C107.936 39.8053 107.498 40 106.982 40C106.467 40 106.029 39.8093 105.668 39.4402C105.295 39.0751 105.116 38.6248 105.116 38.1055Z" fill="#0095DA" id="solid-shield"></path>
                  <path d="M5.12779 38.8763C4.81542 39.0142 4.28803 39.2535 3.28195 39.2535C1.33063 39.2535 0 38.0568 0 36.3042C0 34.5558 1.32657 33.359 3.26978 33.359C4.03651 33.359 4.73022 33.5659 5.05477 33.7201L4.96552 34.5558C4.6572 34.4097 4.03246 34.2028 3.26978 34.2028C1.89047 34.2028 0.953346 35.0548 0.953346 36.3042C0.953346 37.5578 1.93915 38.4178 3.37931 38.4178C4.0568 38.4178 4.66126 38.2272 4.99797 38.0365L5.12779 38.8763Z" fill="black" id="blue"></path>
                  <path d="M12.4622 37.9797H9.57372L9.11125 39.1724H8.16602L10.5271 33.4402H11.4966L13.8658 39.1724H12.9206L12.4622 37.9797ZM9.81307 37.2414H12.1944L11.0139 34.4341L9.81307 37.2414Z" fill="black" id="blue"></path>
                  <path d="M21.3182 39.1724H17.1641V33.4402H18.0525V38.3651H21.3142V39.1724H21.3182Z" fill="black" id="blue"></path>
                  <path d="M25.5533 39.1724H24.6689V33.4402H25.5533V39.1724Z" fill="black" id="blue"></path>
                  <path d="M30.4459 39.1724H29.5615V33.4402H33.5494V34.2475H30.4459V35.8459H32.88V36.6532H30.4459V39.1724Z" fill="black" id="blue"></path>
                  <path d="M39.4319 33.359C41.1763 33.359 42.4663 34.6085 42.4663 36.3367C42.4663 38.0527 41.1763 39.2576 39.4319 39.2576C37.7199 39.2576 36.4258 38.0568 36.4258 36.3367C36.4258 34.6044 37.7158 33.359 39.4319 33.359ZM39.4319 38.4178C40.6935 38.4178 41.5373 37.5781 41.5373 36.3286C41.5373 35.0831 40.6935 34.1988 39.4319 34.1988C38.2027 34.1988 37.3629 35.0831 37.3629 36.3286C37.3629 37.5781 38.2027 38.4178 39.4319 38.4178Z" fill="black" id="blue"></path>
                  <path d="M48.5924 37.4158H47.0143V39.1724H46.1299V33.4402H48.7262C49.8013 33.4402 50.7262 34.069 50.7262 35.4402C50.7262 36.357 50.2191 36.998 49.5214 37.2698L51.0913 39.1643H50.0082L48.5924 37.4158ZM47.0143 34.2475V36.6207H48.5599C49.2455 36.6207 49.8013 36.1785 49.8013 35.4524C49.8013 34.6491 49.2455 34.2515 48.5599 34.2515H47.0143V34.2475Z" fill="black" id="blue"></path>
                  <path d="M55.4234 39.1724H54.5391V33.4402H55.4234L59.0827 37.8093V33.4402H59.9671V39.1724H59.0705L55.4194 34.8479V39.1724H55.4234Z" fill="black" id="blue"></path>
                  <path d="M64.8639 39.1724H63.9795V33.4402H64.8639V39.1724Z" fill="black" id="blue"></path>
                  <path d="M72.471 37.9797H69.5825L69.12 39.1724H68.1748L70.5359 33.4402H71.5054L73.8746 39.1724H72.9294L72.471 37.9797ZM69.8219 37.2414H72.2032L71.0227 34.4341L69.8219 37.2414Z" fill="black" id="blue"></path>
                  <path d="M0.178711 28.7505V1.79712H2.47486V13.9148C3.85417 11.7119 6.60873 9.99185 10.0935 9.99185C15.3958 9.99185 19.3958 14.1825 19.3958 19.5821C19.3958 24.9614 15.3958 29.1359 10.0935 29.1359C6.62902 29.1359 3.87039 27.4523 2.47486 25.2697V28.7545H0.178711V28.7505ZM17.1402 19.5821C17.1402 15.3509 14.057 12.0973 9.94342 12.0973C5.61887 12.0973 2.36127 15.3509 2.36127 19.5821C2.36127 23.7728 5.61482 27.0304 9.94342 27.0304C14.057 27.0263 17.1402 23.7728 17.1402 19.5821Z" fill="black" id="blue"></path>
                  <path d="M24.8154 1.79712H27.1116V28.7505H24.8154V1.79712Z" fill="black" id="blue"></path>
                  <path d="M47.8828 10.3732H50.1425V21.2859C50.1425 25.862 47.0431 29.1358 41.8544 29.1358C36.6658 29.1358 33.5664 25.862 33.5664 21.4036V10.3772H35.826V20.9249C35.826 24.9817 38.2196 26.9939 41.8544 26.9939C45.4893 26.9939 47.8828 24.9857 47.8828 20.9249V10.3732Z" fill="black" id="blue"></path>
                  <path d="M72.4586 27.3145C70.2964 28.6167 68.0002 29.1319 65.6229 29.1319C59.4201 29.1319 55.1523 25.2252 55.1523 19.5619C55.1523 14.0852 59.0753 9.99194 64.6087 9.99194C71.0793 9.99194 74.2761 15.0629 73.3958 20.4057H57.6229C57.988 24.637 61.7974 26.9534 65.3552 26.9534C67.4809 26.9534 69.4891 26.783 71.9596 25.2698L72.4586 27.3145ZM71.2497 18.4504C71.0793 14.8317 68.6655 12.1704 64.6818 12.1704C60.7751 12.1704 57.9434 14.8114 57.6757 18.4504H71.2497Z" fill="black" id="blue"></path>
                  <path d="M0.178711 28.7505V1.79712H2.47486V13.9148C3.85417 11.7119 6.60873 9.99185 10.0935 9.99185C15.3958 9.99185 19.3958 14.1825 19.3958 19.5821C19.3958 24.9614 15.3958 29.1359 10.0935 29.1359C6.62902 29.1359 3.87039 27.4523 2.47486 25.2697V28.7545H0.178711V28.7505ZM17.1402 19.5821C17.1402 15.3509 14.057 12.0973 9.94342 12.0973C5.61887 12.0973 2.36127 15.3509 2.36127 19.5821C2.36127 23.7728 5.61482 27.0304 9.94342 27.0304C14.057 27.0263 17.1402 23.7728 17.1402 19.5821Z" fill="black" id="blue"></path>
                  <path d="M24.8154 1.79712H27.1116V28.7505H24.8154V1.79712Z" fill="black" id="blue"></path>
                  <path d="M47.8828 10.3732H50.1425V21.2859C50.1425 25.862 47.0431 29.1358 41.8544 29.1358C36.6658 29.1358 33.5664 25.862 33.5664 21.4036V10.3772H35.826V20.9249C35.826 24.9817 38.2196 26.9939 41.8544 26.9939C45.4893 26.9939 47.8828 24.9857 47.8828 20.9249V10.3732Z" fill="black" id="blue"></path>
                  <path d="M72.4586 27.3145C70.2964 28.6167 68.0002 29.1319 65.6229 29.1319C59.4201 29.1319 55.1523 25.2252 55.1523 19.5619C55.1523 14.0852 59.0753 9.99194 64.6087 9.99194C71.0793 9.99194 74.2761 15.0629 73.3958 20.4057H57.6229C57.988 24.637 61.7974 26.9534 65.3552 26.9534C67.4809 26.9534 69.4891 26.783 71.9596 25.2698L72.4586 27.3145ZM71.2497 18.4504C71.0793 14.8317 68.6655 12.1704 64.6818 12.1704C60.7751 12.1704 57.9434 14.8114 57.6757 18.4504H71.2497Z" fill="black" id="blue"></path>
                  </svg>