<svg xmlns="http://www.w3.org/2000/svg" width="101" height="53" viewBox="0 0 101 53" fill="none" aria-label="Cigna icon" class="leaf-c-icon" role="img">
<path d="M54.467 47.7809C53.7808 47.7809 53.3716 48.1405 53.0872 48.5589V46.1846H52.0762V52.2891H53.0872V49.7974C53.0872 49.1111 53.4964 48.702 54.0817 48.702C54.6835 48.702 55.0267 49.0946 55.0267 49.7809V52.2891H56.0376V49.4781C56.0395 48.4488 55.4615 47.7809 54.467 47.7809Z" fill="#0033FF"></path>
<path d="M59.1752 47.7809C57.9128 47.7809 57.0174 48.8176 57.0174 50.0818V50.0983C57.0174 51.4616 58.0046 52.39 59.2835 52.39C60.0945 52.39 60.6724 52.0634 61.0908 51.5625L60.4963 51.0359C60.1458 51.379 59.7936 51.5625 59.3 51.5625C58.6486 51.5625 58.1367 51.1607 58.0284 50.4414H61.2743C61.2816 50.3405 61.2908 50.2488 61.2908 50.157C61.2908 48.8855 60.5807 47.7809 59.1752 47.7809ZM58.0211 49.7717C58.1128 49.0855 58.5477 48.6084 59.166 48.6084C59.8358 48.6084 60.2192 49.1185 60.2871 49.7717H58.0211Z" fill="#0033FF"></path>
<path d="M60.9788 42.1535C60.9788 41.3094 60.6724 41.2599 60.6724 41.2599H60.2119C59.4449 41.2599 58.678 40.4929 58.678 39.726V31.9389C58.678 28.7959 60.555 26.917 62.9696 26.917C65.0393 26.917 66.5733 28.0656 66.5733 30.5958V39.726C66.5733 40.4929 65.8063 41.2599 65.0393 41.2599H64.5788C64.5788 41.2599 64.2724 41.3406 64.2724 42.1223C64.2724 42.9039 64.5788 43.3241 64.5788 43.3241H73.6245C73.6245 43.3241 73.9309 42.9846 73.9309 42.203C73.9309 41.4214 73.6245 41.2617 73.6245 41.2617H73.164C72.397 41.2617 71.6301 40.4948 71.6301 39.7278V30.4069C71.6301 25.9978 68.8705 23.8528 64.8834 23.8528C61.933 23.8528 59.6706 25.2326 58.2908 27.2638C58.2908 27.2638 58.2835 25.2528 58.2835 25.0106C58.2835 24.3537 57.6523 24.1244 56.8963 24.429C56.3863 24.6345 53.8102 25.5409 51.6267 25.5409C51.5056 25.7023 51.3166 26.0289 51.3166 26.5629C51.3166 27.0326 51.4267 27.2785 51.623 27.5996H52.0836C52.8505 27.5996 53.6175 28.3665 53.6175 29.1335V39.726C53.6175 40.4929 52.8505 41.2599 52.0836 41.2599H51.623C51.623 41.2599 51.3166 41.3094 51.3166 42.137C51.3166 42.9663 51.623 43.3223 51.623 43.3223H60.6688C60.6743 43.3241 60.9788 42.9993 60.9788 42.1535Z" fill="#0033FF"></path>
<path d="M44.2562 25.251C42.8874 24.3556 41.1718 23.8271 39.2875 23.8271C34.5536 23.8271 31.0784 26.9959 31.0784 30.9683C31.0784 33.4123 32.4142 35.3976 34.2472 36.6196L31.0307 40.6159C31.0307 40.6159 30.6215 41.3571 30.6215 42.0947C30.6215 42.8305 31.0894 43.3278 31.0894 43.3278H33.3701C31.6912 44.3204 30.9261 45.9736 30.9261 47.3864C30.9261 50.135 33.3316 52.3882 38.7168 52.3882C44.1388 52.3882 49.179 49.524 49.179 45.0176C49.179 41.8104 47.2708 39.6361 42.4966 39.6361H35.2802L36.693 37.7242C37.4948 37.9921 38.1444 38.1058 39.2893 38.1058C43.9865 38.1058 47.4983 34.8985 47.4983 30.9647C47.4983 29.7427 47.1571 28.5995 46.5552 27.5996H49.346C49.4928 27.3445 49.6524 26.9904 49.6524 26.3996C49.6524 25.9372 49.48 25.4363 49.3497 25.2473H44.2562V25.251ZM36.6912 43.3278H40.9682C43.5259 43.3278 44.4048 44.7534 44.4048 46.2029C44.4048 48.0359 42.6489 49.9056 39.4801 49.9056C36.5022 49.9056 34.8215 48.5699 34.8215 46.5846C34.8196 45.2488 35.5848 43.9002 36.6912 43.3278ZM39.2875 35.7407C37.1499 35.7407 35.7737 33.9463 35.7737 30.9683C35.7737 27.9904 37.148 26.1959 39.2875 26.1959C41.3883 26.1959 42.7626 27.9904 42.7626 30.9683C42.7626 33.9463 41.3883 35.7407 39.2875 35.7407Z" fill="#0033FF"></path>
<path d="M16.9337 36.9095C16.319 36.6948 15.8163 36.8838 15.8163 36.8838C14.3961 39.3498 13.1117 40.4856 11.1154 40.4856C7.51181 40.4856 5.21276 37.2288 5.21276 33.3573C5.21276 29.7537 6.82191 26.2271 10.5411 26.2271C12.8787 26.2271 14.675 27.684 14.675 29.9059L14.7282 30.5958C14.7282 30.5958 14.6566 30.9023 15.6291 30.9023C16.6016 30.9023 16.8658 30.5958 16.8658 30.5958L16.6731 25.5757C16.6731 25.5757 16.6529 25.4436 16.5832 25.3519C16.5153 25.262 16.4034 25.1923 16.4034 25.1923C14.908 24.3501 12.9154 23.851 10.5778 23.851C5.09717 23.851 0 27.5298 0 34.1628C0 40.104 4.48433 43.8599 9.62187 43.8599C14.4511 43.8599 16.6933 40.8305 17.6896 37.4581C17.6878 37.4545 17.4181 37.0783 16.9337 36.9095Z" fill="#0033FF"></path>
<path d="M23.8033 22.4859C25.5537 22.4859 26.9739 21.029 26.9739 19.2346C26.9739 17.4364 25.5537 15.9814 23.8033 15.9814C22.0529 15.9814 20.6327 17.4364 20.6327 19.2346C20.6327 21.029 22.0529 22.4859 23.8033 22.4859Z" fill="#0033FF"></path>
<path d="M26.3335 28.4381C26.3335 27.6711 27.1005 26.9042 27.8674 26.9042H28.328C28.328 26.9042 28.6344 26.7115 28.6344 25.9684C28.6344 25.2235 28.328 24.8418 28.328 24.8418H19.2823C19.2823 24.8418 18.9758 25.3097 18.9758 26.0326C18.9758 26.7555 19.2823 26.9042 19.2823 26.9042H19.7428C20.5098 26.9042 21.2767 27.6711 21.2767 28.4381V36.1022V39.7241C21.2767 40.4911 20.5098 41.2581 19.7428 41.2581H19.2823C19.2823 41.2581 18.9758 41.4085 18.9758 42.1314C18.9758 42.8544 19.2823 43.3223 19.2823 43.3223H28.328C28.328 43.3223 28.6344 42.9406 28.6344 42.1957C28.6344 41.4526 28.328 41.2599 28.328 41.2599H27.8674C27.1005 41.2599 26.3335 40.4929 26.3335 39.726V37.0838V28.4381Z" fill="#0033FF"></path>
<path d="M84.7656 47.8048C84.0464 47.8048 83.5693 47.9552 83.0849 48.1736L83.3602 48.9846C83.762 48.8176 84.1289 48.7093 84.6225 48.7093C85.3253 48.7093 85.7106 49.0433 85.7106 49.6543V49.7387C85.3675 49.6304 85.0243 49.5552 84.4904 49.5552C83.4611 49.5552 82.6996 50.0231 82.6996 51.0029V51.0194C82.6996 51.9056 83.4354 52.3827 84.2721 52.3827C84.9399 52.3827 85.4005 52.1074 85.7014 51.7478V52.2909H86.7051V49.6726C86.7051 48.4928 86.0684 47.8048 84.7656 47.8048ZM85.7271 50.6909C85.7271 51.2432 85.2243 51.6194 84.5565 51.6194C84.0794 51.6194 83.7033 51.3864 83.7033 50.968V50.9515C83.7033 50.524 84.0794 50.2653 84.7143 50.2653C85.1069 50.2653 85.4665 50.3405 85.7252 50.4414V50.6909H85.7271Z" fill="#0033FF"></path>
<path d="M88.9215 48.8671V47.8726H87.9105V52.2891H88.9215V50.6084C88.9215 49.4377 89.5399 48.8616 90.4279 48.8616H90.4866V47.7901C89.7068 47.7552 89.1968 48.2084 88.9215 48.8671Z" fill="#0033FF"></path>
<path d="M96.4939 40.5682C96.4939 39.9737 96.1875 39.7939 96.1875 39.7939H95.7269C94.96 39.7939 94.1948 39.0269 94.1948 38.2599V24.7813C94.1948 24.7813 94.1655 24.3849 93.7416 24.3849H92.5747C92.3453 24.3849 92.1692 24.5776 92.1692 24.5776L90.5435 26.7005C90.3527 26.95 90.1344 26.7023 90.1344 26.7023V26.7042C89.0463 25.4216 87.2188 23.8473 83.9216 23.8473C78.9767 23.8473 74.263 27.4509 74.263 34.0435C74.263 40.214 78.3254 43.8562 83.3088 43.8562C86.1454 43.8562 87.9472 42.6672 89.3656 40.8269V43.1057C89.3656 43.1057 89.3839 43.6268 89.9692 43.7553C90.4958 43.8709 90.8995 43.7021 90.8995 43.7021L96.1893 41.4415C96.1856 41.4434 96.4939 41.1645 96.4939 40.5682ZM84.3032 41.3278C80.8923 41.3278 79.474 37.9554 79.474 33.8527C79.474 29.7518 80.8923 26.3794 84.3032 26.3794C87.7142 26.3794 89.1325 29.7518 89.1325 33.8527C89.1344 37.9554 87.716 41.3278 84.3032 41.3278Z" fill="#0033FF"></path>
<path d="M64.0761 47.8048C63.3568 47.8048 62.8797 47.9552 62.3953 48.1736L62.6706 48.9846C63.0724 48.8176 63.4394 48.7093 63.9329 48.7093C64.6357 48.7093 65.021 49.0433 65.021 49.6543V49.7387C64.6779 49.6304 64.3348 49.5552 63.799 49.5552C62.7697 49.5552 62.0082 50.0231 62.0082 51.0029V51.0194C62.0082 51.9056 62.744 52.3827 63.5807 52.3827C64.2485 52.3827 64.7091 52.1074 65.01 51.7478V52.2909H66.0136V49.6726C66.0155 48.4928 65.3806 47.8048 64.0761 47.8048ZM65.0375 50.6909C65.0375 51.2432 64.5348 51.6194 63.8669 51.6194C63.3898 51.6194 63.0137 51.3864 63.0137 50.968V50.9515C63.0137 50.524 63.3898 50.2653 64.0247 50.2653C64.4173 50.2653 64.777 50.3405 65.0357 50.4414V50.6909H65.0375Z" fill="#0033FF"></path>
<path d="M93.127 47.7809C91.8646 47.7809 90.9692 48.8176 90.9692 50.0818V50.0983C90.9692 51.4616 91.9563 52.39 93.2352 52.39C94.0462 52.39 94.6242 52.0634 95.0425 51.5625L94.4481 51.0359C94.0976 51.379 93.7453 51.5625 93.2517 51.5625C92.6004 51.5625 92.0885 51.1607 91.9802 50.4414H95.226C95.2334 50.3405 95.2425 50.2488 95.2425 50.157C95.2425 48.8855 94.5325 47.7809 93.127 47.7809ZM91.9729 49.7717C92.0646 49.0855 92.4995 48.6084 93.1178 48.6084C93.7875 48.6084 94.171 49.1185 94.2389 49.7717H91.9729Z" fill="#0033FF"></path>
<path d="M80.3162 51.5111C79.5382 51.5111 78.9951 50.8763 78.9951 50.0891V50.0726C78.9951 49.3038 79.5309 48.6671 80.2666 48.6671C80.7767 48.6671 81.1033 48.8928 81.4116 49.2194L82.0391 48.5424C81.6299 48.091 81.1107 47.7809 80.274 47.7809C78.9529 47.7809 77.9823 48.8341 77.9823 50.0891V50.1056C77.9823 51.3607 78.9529 52.3882 80.2648 52.3882C81.1253 52.3882 81.6354 52.0451 82.0721 51.5607L81.4611 50.9588C81.1437 51.2854 80.7932 51.5111 80.3162 51.5111Z" fill="#0033FF"></path>
<path d="M68.2888 46.1828H67.2778V52.2872H68.2888V46.1828Z" fill="#0033FF"></path>
<path d="M70.8319 46.6598H69.8209V47.8726H69.2613V48.7424H69.8209V51.0671C69.8209 52.0377 70.3475 52.3625 71.0925 52.3625C71.4686 52.3625 71.753 52.2781 72.0044 52.1368V51.3093C71.8025 51.4102 71.6025 51.4597 71.3769 51.4597C71.0337 51.4597 70.8337 51.3001 70.8337 50.9075V48.7405H72.0209V47.8708H70.8337V46.6598H70.8319Z" fill="#0033FF"></path>
<path d="M75.4318 47.7809C74.7456 47.7809 74.3364 48.1405 74.052 48.5589V46.1846H73.041V52.2891H74.052V49.7974C74.052 49.1111 74.4612 48.702 75.0484 48.702C75.6502 48.702 75.9933 49.0946 75.9933 49.7809V52.2891H77.0043V49.4781C77.0043 48.4488 76.4263 47.7809 75.4318 47.7809Z" fill="#0033FF"></path>
<path fill-rule="evenodd" clip-rule="evenodd" d="M21.4565 8.13748C21.4602 6.09348 22.385 4.26966 23.8308 3.04582C25.273 4.27516 26.1886 6.10265 26.1849 8.14666C26.1812 10.1907 25.2583 12.0145 23.8106 13.2383C22.3685 12.009 21.4529 10.1815 21.4565 8.13748ZM28.6436 2.91555C28.0473 4.34672 28.1592 5.89532 28.8142 7.17603C30.1848 6.73751 31.361 5.72651 31.9573 4.29534C32.5536 2.86417 32.4417 1.31558 31.7867 0.0348623C30.4179 0.471553 29.2399 1.48438 28.6436 2.91555ZM15.6823 4.26048C16.2731 5.69349 17.4456 6.70999 18.8144 7.15218C19.4749 5.8733 19.5924 4.32654 19.0015 2.8917C18.4107 1.45869 17.2383 0.442195 15.8695 0C15.2089 1.27888 15.0915 2.82564 15.6823 4.26048ZM7.46777 14.3759C8.89894 14.9722 10.4475 14.8603 11.7283 14.2053C11.2897 12.8347 10.2787 11.6585 8.84757 11.0622C7.4164 10.4659 5.8678 10.5778 4.58708 11.231C5.02561 12.6016 6.0366 13.7796 7.46777 14.3759ZM38.7609 11.1301C37.3278 11.7209 36.3114 12.8934 35.8692 14.2622C37.148 14.9227 38.6948 15.0401 40.1296 14.4493C41.5626 13.8585 42.5791 12.686 43.0213 11.3173C41.7425 10.6567 40.1939 10.5393 38.7609 11.1301ZM34.882 16.9043C32.838 16.9007 31.0105 17.8162 29.7812 19.2602C31.005 20.7079 32.8288 21.6309 34.8728 21.6345C36.9168 21.6382 38.7443 20.7226 39.9737 19.2786C38.7517 17.8309 36.926 16.908 34.882 16.9043ZM29.9848 9.74113C28.5372 11.1833 27.8913 13.1246 28.0436 15.0126C29.9316 15.1704 31.8747 14.5337 33.3242 13.0915C34.7719 11.6494 35.4178 9.7081 35.2655 7.82006C33.3756 7.66043 31.4344 8.29895 29.9848 9.74113ZM12.7411 16.9043C10.6971 16.908 8.87325 17.8309 7.64942 19.2786C8.87692 20.7226 10.7062 21.6382 12.7503 21.6345C14.7943 21.6309 16.6181 20.7079 17.8419 19.2602C16.6126 17.8162 14.7851 16.9007 12.7411 16.9043ZM17.6383 9.74113C16.1906 8.29895 14.2475 7.66226 12.3576 7.82006C12.2053 9.7081 12.8512 11.6494 14.2989 13.0915C15.7465 14.5337 17.6915 15.1704 19.5795 15.0126C19.7318 13.1227 19.0859 11.1833 17.6383 9.74113Z" fill="#03CC54"></path>
</svg>