<svg xmlns="http://www.w3.org/2000/svg" width="600" height="400" viewBox="0 0 600 400"><rect width="100%" height="100%" fill="#2A2A2A"/><path fill="#E0E0E0" d="M145.015 183.645h6.21v33.26h-6.21v-14.54h-15.62v14.54h-6.21v-33.26h6.21v14.31h15.62zm17.2 18.75h10.72q0-1.11-.31-2.08-.31-.98-.93-1.72-.62-.73-1.58-1.16-.95-.42-2.22-.42-2.46 0-3.87 1.4-1.42 1.4-1.81 3.98m14.49 3.42h-14.6q.14 1.82.64 3.14.51 1.33 1.34 2.19.82.86 1.96 1.29 1.14.42 2.52.42t2.38-.32 1.75-.71 1.31-.72q.56-.32 1.09-.32.72 0 1.06.53l1.63 2.07q-.94 1.1-2.11 1.85-1.18.75-2.45 1.2-1.28.45-2.6.63t-2.57.18q-2.46 0-4.57-.81-2.12-.82-3.68-2.42-1.57-1.6-2.46-3.95-.9-2.36-.9-5.46 0-2.42.78-4.55t2.24-3.7q1.46-1.58 3.57-2.5 2.1-.92 4.75-.92 2.23 0 4.12.72 1.88.71 3.24 2.08t2.13 3.36.77 4.54q0 1.29-.28 1.74-.28.44-1.06.44m18.06 5v-3.98q-2.46.11-4.14.42t-2.69.79q-1.02.49-1.45 1.13-.44.65-.44 1.4 0 1.5.89 2.14.88.65 2.31.65 1.75 0 3.02-.63 1.28-.64 2.5-1.92m-12.01-12.4-1.01-1.82q4.07-3.73 9.8-3.73 2.07 0 3.7.68t2.76 1.89 1.71 2.89q.59 1.67.59 3.68v14.9h-2.58q-.8 0-1.24-.24-.43-.24-.69-.98l-.5-1.7q-.9.8-1.75 1.41t-1.77 1.03q-.92.41-1.97.63t-2.31.22q-1.5 0-2.76-.4-1.27-.41-2.19-1.21-.92-.81-1.42-2-.51-1.2-.51-2.79 0-.89.3-1.78.3-.88.98-1.69.68-.8 1.76-1.52 1.08-.71 2.65-1.24 1.58-.53 3.67-.86 2.1-.34 4.79-.4v-1.38q0-2.37-1.01-3.51-1.02-1.14-2.93-1.14-1.38 0-2.28.32-.91.32-1.6.73-.69.4-1.26.72-.56.32-1.25.32-.6 0-1.01-.31-.42-.31-.67-.72m22.96-15.69h5.68v34.18h-5.68zm19.22 34.55q-3.08 0-4.72-1.74-1.65-1.73-1.65-4.79v-13.18h-2.41q-.46 0-.78-.3-.33-.3-.33-.9v-2.25l3.8-.62 1.19-6.44q.12-.46.44-.72.32-.25.83-.25h2.94v7.43h6.31v4.05h-6.31v12.79q0 1.1.54 1.72t1.49.62q.53 0 .88-.13.36-.12.62-.26.27-.14.48-.26.2-.13.41-.13.25 0 .41.13.16.12.35.37l1.7 2.77q-1.24 1.03-2.85 1.56t-3.34.53m14.93-34.55v13.11q1.38-1.29 3.04-2.09 1.65-.81 3.88-.81 1.94 0 3.43.66 1.5.65 2.5 1.84 1 1.18 1.51 2.83.52 1.64.52 3.62v15.02h-5.68v-15.02q0-2.16-.99-3.35-.99-1.18-3.01-1.18-1.47 0-2.76.67-1.29.66-2.44 1.81v17.07h-5.68v-34.18zm38.66 13.5-1.49 2.07q-.25.32-.5.51-.24.18-.7.18-.43 0-.85-.26-.41-.27-.99-.6-.57-.33-1.37-.6-.79-.26-1.96-.26-1.5 0-2.62.54-1.13.54-1.88 1.55t-1.11 2.45q-.37 1.44-.37 3.25 0 1.89.4 3.36.4 1.48 1.16 2.48t1.84 1.51q1.08.52 2.44.52t2.2-.33q.84-.34 1.41-.74.58-.4 1-.73.43-.34.96-.34.69 0 1.03.53l1.63 2.07q-.94 1.1-2.04 1.85-1.11.75-2.29 1.2-1.19.45-2.44.63t-2.5.18q-2.18 0-4.11-.81-1.93-.82-3.38-2.38-1.45-1.57-2.29-3.83-.84-2.27-.84-5.17 0-2.59.75-4.81.74-2.22 2.19-3.84 1.45-1.63 3.59-2.55t4.92-.92q2.65 0 4.64.86 1.99.85 3.57 2.43m16.24 14.59v-3.98q-2.46.11-4.14.42t-2.69.79q-1.01.49-1.45 1.13-.44.65-.44 1.4 0 1.5.89 2.14.89.65 2.31.65 1.75 0 3.03-.63 1.27-.64 2.49-1.92m-12-12.4-1.02-1.82q4.07-3.73 9.8-3.73 2.07 0 3.7.68 1.64.68 2.76 1.89 1.13 1.21 1.72 2.89.58 1.67.58 3.68v14.9h-2.57q-.81 0-1.24-.24-.44-.24-.69-.98l-.51-1.7q-.9.8-1.75 1.41t-1.77 1.03q-.92.41-1.97.63-1.04.22-2.31.22-1.49 0-2.76-.4-1.26-.41-2.18-1.21-.92-.81-1.43-2-.5-1.2-.5-2.79 0-.89.3-1.78.29-.88.97-1.69.68-.8 1.76-1.52 1.08-.71 2.66-1.24 1.57-.53 3.67-.86 2.09-.34 4.78-.4v-1.38q0-2.37-1.01-3.51t-2.92-1.14q-1.38 0-2.29.32t-1.6.73q-.69.4-1.25.72-.57.32-1.26.32-.59 0-1.01-.31-.41-.31-.66-.72m27.89-3.68.35 2.67q1.1-2.12 2.62-3.33t3.59-1.21q1.63 0 2.62.72l-.37 4.25q-.11.42-.33.59t-.59.17q-.34 0-1.02-.11-.68-.12-1.32-.12-.95 0-1.68.28-.74.27-1.32.79-.59.52-1.04 1.26-.45.73-.84 1.67v14.54h-5.68v-23.6h3.34q.87 0 1.21.31.35.31.46 1.12m16.63 7.66h10.72q0-1.11-.31-2.08-.31-.98-.93-1.72-.62-.73-1.58-1.16-.95-.42-2.22-.42-2.46 0-3.87 1.4-1.42 1.4-1.81 3.98m14.49 3.42h-14.6q.14 1.82.64 3.14.51 1.33 1.34 2.19.82.86 1.96 1.29 1.14.42 2.52.42t2.38-.32 1.75-.71 1.31-.72q.56-.32 1.09-.32.72 0 1.06.53l1.63 2.07q-.94 1.1-2.11 1.85t-2.45 1.2-2.6.63-2.56.18q-2.47 0-4.58-.81-2.12-.82-3.68-2.42-1.57-1.6-2.46-3.95-.9-2.36-.9-5.46 0-2.42.78-4.55t2.24-3.7q1.47-1.58 3.57-2.5t4.75-.92q2.23 0 4.12.72 1.88.71 3.24 2.08t2.13 3.36.77 4.54q0 1.29-.28 1.74-.27.44-1.06.44m23.85-5.45h4.63q1.7 0 2.96-.42 1.27-.43 2.11-1.22.84-.8 1.25-1.93.42-1.14.42-2.55 0-1.33-.42-2.41-.41-1.08-1.24-1.84t-2.09-1.16q-1.27-.4-2.99-.4h-4.63zm-6.18-16.72h10.81q3.33 0 5.77.78 2.44.79 4.03 2.19 1.58 1.4 2.35 3.36.77 1.95.77 4.27 0 2.42-.8 4.43-.81 2.02-2.42 3.46-1.61 1.45-4.03 2.26-2.43.8-5.67.8h-4.63v11.71h-6.18zm38.02 9.29q2.62 0 4.77.86 2.15.85 3.68 2.41t2.36 3.82q.82 2.25.82 5.03 0 2.81-.82 5.06-.83 2.26-2.36 3.85-1.53 1.58-3.68 2.43t-4.77.85q-2.65 0-4.81-.85t-3.69-2.43q-1.53-1.59-2.37-3.85-.84-2.25-.84-5.06 0-2.78.84-5.03.84-2.26 2.37-3.82t3.69-2.41q2.16-.86 4.81-.86m0 19.94q2.94 0 4.35-1.97 1.42-1.98 1.42-5.8t-1.42-5.82q-1.41-2-4.35-2-2.99 0-4.43 2.01-1.44 2.02-1.44 5.81 0 3.8 1.44 5.79 1.44 1.98 4.43 1.98m21-18.14.34 2.67q1.1-2.12 2.62-3.33t3.59-1.21q1.63 0 2.62.72l-.37 4.25q-.11.42-.33.59t-.59.17q-.34 0-1.02-.11-.68-.12-1.32-.12-.94 0-1.68.28-.74.27-1.32.79-.59.52-1.04 1.26-.45.73-.84 1.67v14.54h-5.68v-23.6h3.34q.87 0 1.22.31.34.31.46 1.12m20.01 22.54q-3.09 0-4.73-1.74-1.65-1.73-1.65-4.79v-13.18h-2.41q-.46 0-.78-.3t-.32-.9v-2.25l3.79-.62 1.2-6.44q.11-.46.43-.72.33-.25.83-.25h2.95v7.43h6.3v4.05h-6.3v12.79q0 1.1.54 1.72t1.48.62q.53 0 .89-.13.35-.12.62-.26.26-.14.47-.26.2-.13.41-.13.25 0 .42.13.16.12.34.37l1.7 2.77q-1.24 1.03-2.85 1.56t-3.33.53m21.71-6.46v-3.98q-2.46.11-4.14.42t-2.69.79q-1.02.49-1.45 1.13-.44.65-.44 1.4 0 1.5.89 2.14.88.65 2.31.65 1.75 0 3.02-.63 1.28-.64 2.5-1.92m-12.01-12.4-1.01-1.82q4.07-3.73 9.8-3.73 2.07 0 3.7.68t2.76 1.89 1.71 2.89q.59 1.67.59 3.68v14.9h-2.58q-.8 0-1.24-.24-.43-.24-.69-.98l-.5-1.7q-.9.8-1.75 1.41t-1.77 1.03q-.92.41-1.97.63t-2.31.22q-1.5 0-2.76-.4-1.27-.41-2.19-1.21-.92-.81-1.42-2-.51-1.2-.51-2.79 0-.89.3-1.78.3-.88.98-1.69.68-.8 1.76-1.52 1.08-.71 2.66-1.24 1.57-.53 3.66-.86 2.1-.34 4.79-.4v-1.38q0-2.37-1.01-3.51-1.02-1.14-2.93-1.14-1.38 0-2.28.32-.91.32-1.6.73-.69.4-1.26.72-.56.32-1.25.32-.6 0-1.01-.31-.42-.31-.67-.72m22.96-15.69h5.68v34.18h-5.68z"/></svg>