<svg xmlns="http://www.w3.org/2000/svg" width="800" height="600" viewBox="0 0 800 600"><rect width="100%" height="100%" fill="#1A1A1A"/><path fill="#E0E0E0" d="M242.94 300.005q0 8.58-2.83 15.9-2.84 7.32-8.02 12.66-5.19 5.35-12.48 8.35-7.29 2.99-16.2 2.99-8.85 0-16.14-2.99-7.29-3-12.5-8.35-5.21-5.34-8.08-12.66-2.86-7.32-2.86-15.9 0-8.59 2.86-15.91 2.87-7.31 8.08-12.66 5.21-5.34 12.5-8.34t16.14-3q5.94 0 11.18 1.38t9.61 3.89q4.38 2.51 7.86 6.1t5.91 8.02 3.7 9.61 1.27 10.91m-14.85 0q0-6.43-1.73-11.53-1.72-5.1-4.91-8.67-3.19-3.56-7.75-5.45t-10.29-1.89q-5.72 0-10.28 1.89-4.57 1.89-7.78 5.45-3.21 3.57-4.94 8.67t-1.73 11.53q0 6.42 1.73 11.53 1.73 5.1 4.94 8.64 3.21 3.53 7.78 5.42 4.56 1.89 10.28 1.89 5.73 0 10.29-1.89t7.75-5.42q3.19-3.54 4.91-8.64 1.73-5.11 1.73-11.53m59.94-16.36h13.34v55.4h-8.15q-2.65 0-3.35-2.43l-.92-4.43q-3.4 3.46-7.51 5.59-4.1 2.13-9.66 2.13-4.54 0-8.02-1.54-3.48-1.53-5.86-4.34t-3.59-6.67q-1.22-3.86-1.22-8.51v-35.2h13.34v35.2q0 5.08 2.35 7.86t7.05 2.78q3.45 0 6.48-1.54 3.02-1.54 5.72-4.24zm38.29 3.34.81 6.27q2.59-4.97 6.15-7.8 3.57-2.84 8.43-2.84 3.83 0 6.15 1.67l-.86 9.99q-.27.98-.78 1.38-.52.41-1.38.41-.81 0-2.4-.27-1.6-.27-3.11-.27-2.21 0-3.94.64-1.73.65-3.1 1.87-1.38 1.21-2.43 2.94-1.06 1.73-1.98 3.94v34.13h-13.33v-55.4h7.83q2.05 0 2.86.73.81.72 1.08 2.61m111.4-26.02v11.93h-23.54v66.15h-14.53v-66.15h-23.54v-11.93zm18.68 44.01h25.17q0-2.6-.73-4.89-.73-2.3-2.19-4.02-1.46-1.73-3.7-2.73t-5.21-1q-5.78 0-9.1 3.29-3.32 3.3-4.24 9.35m34.02 8.04h-34.29q.33 4.27 1.52 7.37 1.18 3.11 3.13 5.13 1.94 2.03 4.62 3.03 2.67 1 5.91 1t5.59-.76 4.1-1.67q1.76-.92 3.08-1.68 1.32-.75 2.56-.75 1.68 0 2.49 1.24l3.83 4.86q-2.21 2.59-4.97 4.34-2.75 1.76-5.75 2.81-2.99 1.06-6.1 1.49-3.1.43-6.02.43-5.78 0-10.75-1.92-4.96-1.91-8.64-5.67-3.67-3.75-5.77-9.29-2.11-5.53-2.11-12.82 0-5.67 1.84-10.66 1.83-5 5.26-8.7t8.37-5.86 11.15-2.16q5.24 0 9.67 1.68 4.43 1.67 7.61 4.88 3.19 3.22 5 7.89t1.81 10.66q0 3.03-.65 4.08t-2.49 1.05m42.39 11.72v-9.34q-5.77.27-9.72 1-3.94.73-6.31 1.86-2.38 1.13-3.41 2.65-1.02 1.51-1.02 3.29 0 3.51 2.08 5.02t5.42 1.51q4.11 0 7.11-1.48 2.99-1.49 5.85-4.51m-28.18-29.11-2.38-4.26q9.56-8.75 23-8.75 4.86 0 8.7 1.59 3.83 1.6 6.48 4.43 2.64 2.84 4.02 6.78t1.38 8.64v34.99h-6.05q-1.89 0-2.92-.57-1.02-.56-1.62-2.29l-1.18-4q-2.11 1.89-4.11 3.32t-4.16 2.41q-2.16.97-4.61 1.48-2.46.51-5.43.51-3.51 0-6.48-.94-2.97-.95-5.13-2.84t-3.35-4.69q-1.19-2.81-1.19-6.54 0-2.1.71-4.18.7-2.08 2.29-3.97t4.13-3.57q2.54-1.67 6.24-2.91t8.61-2.03q4.92-.78 11.23-.94v-3.24q0-5.56-2.37-8.24-2.38-2.67-6.86-2.67-3.24 0-5.37.76-2.14.75-3.76 1.7-1.62.94-2.94 1.7-1.32.75-2.94.75-1.41 0-2.38-.72-.97-.73-1.56-1.71m67.06 43.42h-13.33v-55.4h8.15q2.59 0 3.4 2.43l.87 4.1q1.45-1.62 3.05-2.97 1.59-1.35 3.4-2.32t3.89-1.54 4.56-.57q5.24 0 8.61 2.84 3.38 2.83 5.05 7.53 1.3-2.75 3.24-4.73 1.95-1.97 4.27-3.21t4.94-1.83q2.62-.6 5.26-.6 4.59 0 8.16 1.41 3.56 1.4 5.99 4.1t3.7 6.59 1.27 8.91v35.26h-13.34v-35.26q0-5.29-2.32-7.97-2.32-2.67-6.8-2.67-2.06 0-3.81.7-1.76.7-3.08 2.03-1.32 1.32-2.08 3.32-.75 2-.75 4.59v35.26h-13.4v-35.26q0-5.56-2.24-8.1t-6.56-2.54q-2.91 0-5.42 1.43-2.52 1.43-4.68 3.92z"/></svg>