<svg xmlns="http://www.w3.org/2000/svg" viewBox="0 0 1217.48 609.78"><defs><style>.a{fill:#023f88;}.b{fill:none;}.c{fill:#c4122f;}.d{fill:#c0223d;}.e{fill:#fff;}</style></defs><title>TRICARElogo</title><path class="a" d="M1061.64,423.8l168.3,111.93-74-176.45,155.4-129.41H1121l-59.3-165-54.58,165H977.67l-59.3-165-55.07,165h-27L777,64.87,723,227.14l30,15,25.53-96.65L810.4,261.28H938.07L824.41,344.69,878,455.86,777,386.94,777,423.8l168.3,111.93-74-176.45,117.69-98h90.44L965.73,344.69l53.58,111.16L918.37,386.94l-.1,36.87,168.3,111.93-74-176.45,117.69-98h92.49L1109.1,344.69l53.58,111.16-100.94-68.92Zm-164-193.93,22.28-84.36,23.19,84.36Zm143.37,0,22.28-84.36,23.19,84.36Z" transform="translate(-154.19 -64.87)"/><polygon class="b" points="60.2 139.85 60.97 139.47 60.2 139.85 60.2 139.85"/><polygon class="b" points="36.04 240.85 35.27 241.23 35.27 241.23 36.04 240.85"/><polygon class="b" points="12.14 340.86 11.37 341.24 11.36 341.24 12.14 340.86"/><path class="c" d="M727.51,210.5c-27.69-11.31-66.89-22.64-113.28-22.65-43.09,0-92.39,9.91-143.37,38.46-57.36,32.09-102.7,42.9-137.86,42.9-22,0-40.06-4.18-55.12-10.33a130.63,130.63,0,0,1-48.56-34.68,121.13,121.13,0,0,1-11.06-14.6c-1.16-1.82-2-3.25-2.5-4.17-.25-.46-.43-.79-.53-1l-.06-.13-.77.38L203,239.57a163.4,163.4,0,0,0,18.62,19.28,159.65,159.65,0,0,0,44.87,27.8c18.5,7.58,40.66,12.57,66.42,12.57H333c41.42,0,91.85-12.76,152.51-46.72,46.41-25.94,90.16-34.62,128.72-34.64,41.45,0,76.92,10.19,101.93,20.42a256.14,256.14,0,0,1,29,14c1.67.95,3.15,1.81,4.41,2.57l8-30A289.57,289.57,0,0,0,727.51,210.5Z" transform="translate(-154.19 -64.87)"/><path class="d" d="M215.16,204.34l0,0-.73.37,0,.06Z" transform="translate(-154.19 -64.87)"/><polygon class="e" points="60.2 139.85 60.22 139.79 57 141.41 60.2 139.85"/><path class="c" d="M702.59,311.88c-27.69-11.31-66.89-22.64-113.28-22.65-43.09,0-92.39,9.9-143.37,38.46-57.36,32.09-102.7,42.9-137.86,42.9-21.95,0-40.06-4.18-55.12-10.33a130.6,130.6,0,0,1-48.56-34.68A121.07,121.07,0,0,1,193.33,311c-1.16-1.82-2-3.25-2.5-4.17-.26-.46-.43-.79-.53-1l-.09-.18-.73.37,0,.06.77-.38-.77.38-11.36,34.85a163.37,163.37,0,0,0,18.62,19.28A159.71,159.71,0,0,0,241.58,388c18.5,7.58,40.66,12.57,66.42,12.57h.06c41.42,0,91.84-12.76,152.51-46.72,46.41-25.94,90.16-34.62,128.72-34.64,41.46,0,76.92,10.19,101.94,20.42a256.33,256.33,0,0,1,29,14c1.67.95,3.14,1.81,4.4,2.57l8-30A289.67,289.67,0,0,0,702.59,311.88Z" transform="translate(-154.19 -64.87)"/><polygon class="e" points="35.27 241.23 35.29 241.17 32.07 242.79 35.27 241.23"/><path class="c" d="M678.68,411.89c-27.69-11.3-66.89-22.64-113.28-22.64-43.09,0-92.39,9.9-143.37,38.46-57.36,32.09-102.69,42.9-137.86,42.9-21.95,0-40.06-4.18-55.12-10.33a130.63,130.63,0,0,1-48.56-34.68A121.46,121.46,0,0,1,169.42,411c-1.16-1.82-2-3.25-2.5-4.17-.26-.46-.43-.79-.53-1l-.09-.17-.73.37,0,.06.78-.38-.78.38L154.19,441a163.47,163.47,0,0,0,18.62,19.28A159.71,159.71,0,0,0,217.68,488c18.49,7.58,40.65,12.57,66.4,12.57h.08c41.41,0,91.85-12.76,152.51-46.72,46.41-25.95,90.16-34.62,128.72-34.64,41.45,0,76.92,10.19,101.93,20.42a256.15,256.15,0,0,1,29,14c1.67.95,3.14,1.81,4.4,2.57l8-30A290,290,0,0,0,678.68,411.89Z" transform="translate(-154.19 -64.87)"/><polygon class="e" points="11.37 341.24 11.38 341.18 8.17 342.8 11.37 341.24"/><polygon class="c" points="45.6 609.66 24.9 609.66 24.9 547.57 7.79 547.57 7.79 530.04 62.71 530.04 62.71 547.57 45.6 547.57 45.6 609.66"/><path class="c" d="M419.72,673.53H394L374.42,642.9h-.21v30.63h-20.7V593.9h30.94c15.73,0,27.67,7.5,27.67,24.5,0,11-6.12,20.49-17.43,22.49ZM374.2,629.6h2c6.76,0,14.36-1.27,14.36-9.93s-7.6-9.93-14.36-9.93h-2Z" transform="translate(-154.19 -64.87)"/><rect class="c" x="383.58" y="529.04" width="20.7" height="79.63"/><path class="c" d="M744.22,619.62a22.47,22.47,0,0,0-18.16-8.77c-12.67,0-21.23,9.72-21.23,22.07,0,12.57,8.66,21.65,21.54,21.65a23.81,23.81,0,0,0,17.85-8.45v24.82c-6.87,2.11-11.83,3.7-18.27,3.7a44.33,44.33,0,0,1-29.89-11.72c-8.76-7.92-12.78-18.27-12.78-30.1A41.67,41.67,0,0,1,695,603.67a43.15,43.15,0,0,1,30.31-12.88,48.56,48.56,0,0,1,18.9,4Z" transform="translate(-154.19 -64.87)"/><path class="c" d="M897.56,660.7l-5.49,13.83h-22l30.62-79.63h22.6l30,79.63H931.25l-5.18-13.83ZM912,619.51h-.21l-8.55,25.34h17.21Z" transform="translate(-154.19 -64.87)"/><path class="c" d="M1141.48,673.53h-25.77l-19.54-30.63H1096v30.63h-20.7V593.9h30.94c15.73,0,27.67,7.5,27.67,24.5,0,11-6.12,20.49-17.42,22.49ZM1096,629.6h2c6.76,0,14.36-1.27,14.36-9.93s-7.6-9.93-14.36-9.93h-2Z" transform="translate(-154.19 -64.87)"/><polygon class="c" points="1133.22 546.57 1133.22 559.88 1156.56 559.88 1156.56 577.4 1133.22 577.4 1133.22 591.13 1157.82 591.13 1157.82 608.66 1112.52 608.66 1112.52 529.04 1157.82 529.04 1157.82 546.57 1133.22 546.57"/><path class="c" d="M1351.42,593a20.79,20.79,0,0,1,10,2.62,18.61,18.61,0,0,1,7.57,7.49,20.36,20.36,0,0,1,0,20.23,18.84,18.84,0,0,1-7.49,7.51,20.36,20.36,0,0,1-20.17,0,18.92,18.92,0,0,1-7.51-7.51,20.27,20.27,0,0,1,0-20.23,18.69,18.69,0,0,1,7.59-7.49,20.79,20.79,0,0,1,10-2.62m0,3.36a17.24,17.24,0,0,0-8.31,2.19,15.69,15.69,0,0,0-6.33,6.26,16.85,16.85,0,0,0,0,16.87A15.92,15.92,0,0,0,1343,628a16.88,16.88,0,0,0,16.81,0,15.83,15.83,0,0,0,6.26-6.26,16.93,16.93,0,0,0,0-16.87,15.59,15.59,0,0,0-6.32-6.26,17.28,17.28,0,0,0-8.3-2.19m-8.89,28.12V602.7H1350a18.33,18.33,0,0,1,5.56.6,5.38,5.38,0,0,1,2.74,2.11,5.6,5.6,0,0,1,1,3.2,5.81,5.81,0,0,1-1.71,4.16,6.74,6.74,0,0,1-4.53,2,6,6,0,0,1,1.85,1.16,24.94,24.94,0,0,1,3.22,4.32l2.66,4.27h-4.3l-1.93-3.44q-2.28-4.05-3.68-5.08a4.53,4.53,0,0,0-2.82-.75H1346v9.27Zm3.52-12.27h4.27q3.06,0,4.18-.91a3.13,3.13,0,0,0,.58-4.15,3.21,3.21,0,0,0-1.49-1.14,11,11,0,0,0-3.53-.38h-4Z" transform="translate(-154.19 -64.87)"/></svg>